<svg xmlns="http://www.w3.org/2000/svg" width="17" height="17" fill="none"><path fill="url(#a)" d="m14.592 3.167.095.007.018.004.019.002.029.008a.531.531 0 0 1 .096.032l.022.011a.659.659 0 0 1 .106.063l.026.018a.656.656 0 0 1 .11.11c.01.012.018.025.027.039a.662.662 0 0 1 .086.182l.008.03a.67.67 0 0 1 .018.124c0 .012.004.024.004.037v8a2 2 0 0 1-2 2H3.922a2 2 0 0 1-2-2V3.819a.762.762 0 0 1 .012-.107l.002-.013v-.006a.668.668 0 0 1 .147-.294l.009-.01a.668.668 0 0 1 .066-.064l.022-.017c.02-.015.04-.03.06-.043l.037-.02a.667.667 0 0 1 .055-.027l.045-.017.016-.005.078-.02c.004 0 .009 0 .013-.002a.665.665 0 0 1 .104-.007h12.004ZM9.06 10.305a.668.668 0 0 1-.84.085l-.104-.085-4.86-4.86v6.389c0 .368.298.667.666.667h9.334a.667.667 0 0 0 .666-.667V5.443L9.06 10.305Z"/><defs><linearGradient id="a" x1=".809" x2="6.614" y1="3.862" y2="16.378" gradientUnits="userSpaceOnUse"><stop stop-color="#fff"/><stop offset=".351" stop-color="#9573DE"/><stop offset="1" stop-color="#fff"/></linearGradient></defs></svg>